<svg id="visual" viewBox="0 0 900 600" width="900" height="600" xmlns="http://www.w3.org/2000/svg" xmlns:xlink="http://www.w3.org/1999/xlink" version="1.1"><g stroke-width="1" stroke-linejoin="bevel"><path d="M477.7 276L441.3 343L567.9 271Z" fill="#09202d" stroke="#09202d"></path><path d="M567.9 271L568.9 192L477.7 276Z" fill="#041119" stroke="#041119"></path><path d="M568.9 192L433.3 184L477.7 276Z" fill="#091923" stroke="#091923"></path><path d="M477.7 276L315.1 331L441.3 343Z" fill="#052b3e" stroke="#052b3e"></path><path d="M441.3 343L663.9 491L567.9 271Z" fill="#082432" stroke="#082432"></path><path d="M568.9 192L543.3 151L433.3 184Z" fill="#041119" stroke="#041119"></path><path d="M465.7 530L663.9 491L441.3 343Z" fill="#032e43" stroke="#032e43"></path><path d="M567.9 271L729.4 289L568.9 192Z" fill="#010c14" stroke="#010c14"></path><path d="M663.9 491L729.4 289L567.9 271Z" fill="#091c28" stroke="#091c28"></path><path d="M568.9 192L577.9 131L543.3 151Z" fill="#09202d" stroke="#09202d"></path><path d="M433.3 184L315.1 331L477.7 276Z" fill="#091c28" stroke="#091c28"></path><path d="M441.3 343L342.1 461L465.7 530Z" fill="#052b3e" stroke="#052b3e"></path><path d="M328.7 439L342.1 461L441.3 343Z" fill="#003249" stroke="#003249"></path><path d="M315.1 331L328.7 439L441.3 343Z" fill="#010c14" stroke="#010c14"></path><path d="M729.4 289L577.9 131L568.9 192Z" fill="#032e43" stroke="#032e43"></path><path d="M543.3 151L413.7 96L433.3 184Z" fill="#091923" stroke="#091923"></path><path d="M465.7 530L612.3 569L663.9 491Z" fill="#041119" stroke="#041119"></path><path d="M465.7 530L606.3 600L612.3 569Z" fill="#032e43" stroke="#032e43"></path><path d="M612.3 569L773.4 600L663.9 491Z" fill="#09202d" stroke="#09202d"></path><path d="M606.3 600L617.9 600L612.3 569Z" fill="#072738" stroke="#072738"></path><path d="M482.3 0L413.7 96L543.3 151Z" fill="#072738" stroke="#072738"></path><path d="M433.3 184L270.1 158L315.1 331Z" fill="#003249" stroke="#003249"></path><path d="M342.1 461L361.7 600L465.7 530Z" fill="#091c28" stroke="#091c28"></path><path d="M465.7 530L361.7 600L606.3 600Z" fill="#082432" stroke="#082432"></path><path d="M164.1 600L361.7 600L342.1 461Z" fill="#07151e" stroke="#07151e"></path><path d="M413.7 96L270.1 158L433.3 184Z" fill="#091923" stroke="#091923"></path><path d="M315.1 331L202.1 439L328.7 439Z" fill="#07151e" stroke="#07151e"></path><path d="M328.7 439L202.1 439L342.1 461Z" fill="#091c28" stroke="#091c28"></path><path d="M270.1 158L221.6 236L315.1 331Z" fill="#041119" stroke="#041119"></path><path d="M221.6 236L202.1 439L315.1 331Z" fill="#091c28" stroke="#091c28"></path><path d="M729.4 289L679.4 35L577.9 131Z" fill="#072738" stroke="#072738"></path><path d="M577.9 131L482.3 0L543.3 151Z" fill="#010c14" stroke="#010c14"></path><path d="M573.9 0L482.3 0L577.9 131Z" fill="#041119" stroke="#041119"></path><path d="M413.7 96L376.7 0L270.1 158Z" fill="#072738" stroke="#072738"></path><path d="M679.4 35L573.9 0L577.9 131Z" fill="#09202d" stroke="#09202d"></path><path d="M617.9 600L773.4 600L612.3 569Z" fill="#09202d" stroke="#09202d"></path><path d="M663.9 491L900 341L729.4 289Z" fill="#032e43" stroke="#032e43"></path><path d="M729.4 289L833.4 141L679.4 35Z" fill="#091923" stroke="#091923"></path><path d="M900 201L833.4 141L729.4 289Z" fill="#003249" stroke="#003249"></path><path d="M900 508L900 341L663.9 491Z" fill="#09202d" stroke="#09202d"></path><path d="M482.3 0L376.7 0L413.7 96Z" fill="#091923" stroke="#091923"></path><path d="M773.4 600L867.4 552L663.9 491Z" fill="#052b3e" stroke="#052b3e"></path><path d="M900 341L900 201L729.4 289Z" fill="#052b3e" stroke="#052b3e"></path><path d="M867.4 552L900 508L663.9 491Z" fill="#091923" stroke="#091923"></path><path d="M900 201L900 182L833.4 141Z" fill="#082432" stroke="#082432"></path><path d="M833.4 141L823.4 0L679.4 35Z" fill="#003249" stroke="#003249"></path><path d="M133.6 600L164.1 600L202.1 439Z" fill="#07151e" stroke="#07151e"></path><path d="M202.1 439L164.1 600L342.1 461Z" fill="#010c14" stroke="#010c14"></path><path d="M773.4 600L900 600L867.4 552Z" fill="#07151e" stroke="#07151e"></path><path d="M867.4 552L900 600L900 508Z" fill="#003249" stroke="#003249"></path><path d="M900 0L823.4 0L833.4 141Z" fill="#032e43" stroke="#032e43"></path><path d="M679.4 35L823.4 0L573.9 0Z" fill="#07151e" stroke="#07151e"></path><path d="M270.1 158L182.6 36L221.6 236Z" fill="#052b3e" stroke="#052b3e"></path><path d="M221.6 236L71.6 434L202.1 439Z" fill="#010c14" stroke="#010c14"></path><path d="M376.7 0L182.6 36L270.1 158Z" fill="#003249" stroke="#003249"></path><path d="M0 355L71.6 434L0 307Z" fill="#032e43" stroke="#032e43"></path><path d="M71.6 434L133.6 600L202.1 439Z" fill="#091c28" stroke="#091c28"></path><path d="M376.7 0L180.1 0L182.6 36Z" fill="#091923" stroke="#091923"></path><path d="M0 407L37.6 450L71.6 434Z" fill="#082432" stroke="#082432"></path><path d="M0 307L221.6 236L0 26Z" fill="#003249" stroke="#003249"></path><path d="M71.6 434L37.6 450L133.6 600Z" fill="#091923" stroke="#091923"></path><path d="M900 182L900 0L833.4 141Z" fill="#082432" stroke="#082432"></path><path d="M180.1 0L129.6 0L182.6 36Z" fill="#052b3e" stroke="#052b3e"></path><path d="M0 307L71.6 434L221.6 236Z" fill="#072738" stroke="#072738"></path><path d="M0 26L221.6 236L182.6 36Z" fill="#032e43" stroke="#032e43"></path><path d="M0 355L0 407L71.6 434Z" fill="#003249" stroke="#003249"></path><path d="M37.6 450L0 600L133.6 600Z" fill="#041119" stroke="#041119"></path><path d="M0 407L0 600L37.6 450Z" fill="#072738" stroke="#072738"></path><path d="M129.6 0L0 26L182.6 36Z" fill="#041119" stroke="#041119"></path><path d="M129.6 0L0 0L0 26Z" fill="#010c14" stroke="#010c14"></path></g></svg>